<svg xmlns="http://www.w3.org/2000/svg" viewBox="0 0 283.5 283.5"><path d="M141.7 12.4c-71.1 0-128.8 57.8-128.8 128.8 0 71.1 57.8 128.9 128.8 128.9 71 0 128.8-57.8 128.8-128.9.1-71-57.7-128.8-128.8-128.8m0 264.5C66.9 276.9 6 216 6 141.2S66.9 5.5 141.7 5.5s135.7 60.9 135.7 135.7-60.9 135.7-135.7 135.7"/><path d="M204.6 186.4h-15.3v-73.5c0-1.4-.9-1.8-1.4-1.8-.5 0-1 .3-1.4.8l-3.4 4c-.8.9-1.3 2.5-1.3 3.6v66.9h-15.3c-1.5 0-2.7 1.2-2.7 2.7v2.2c0 1.5 1.2 2.7 2.7 2.7h38.1c1.5 0 2.7-1.2 2.7-2.7v-2.2c0-1.5-1.2-2.7-2.7-2.7M115.7 186.4h-15.3v-67.7c0-1.2-.6-2.8-1.5-3.6l-3.3-3.3c-.4-.5-.9-.7-1.4-.7-.7 0-1.5.6-1.5 1.9v73.5H77.5c-1.5 0-2.7 1.2-2.7 2.7v2.2c0 1.5 1.2 2.7 2.7 2.7h38.1c1.5 0 2.7-1.2 2.7-2.7v-2.2c.1-1.6-1.1-2.8-2.6-2.8"/><path d="M209.5 88.5H185c-1.2 0-2.8.7-3.6 1.6l-36.6 43.3V57.8H160c1.5 0 2.7-1.2 2.7-2.7v-2.2c0-1.5-1.2-2.7-2.7-2.7h-38.2c-1.5 0-2.7 1.2-2.7 2.7v2.2c0 1.5 1.2 2.7 2.7 2.7h15.3v75.6l-35.3-43.2c-.8-1-2.3-1.7-3.5-1.7H73.9c-1.5 0-2.7 1.2-2.7 2.7v2.2c0 1.5 1.2 2.7 2.7 2.7h22c.6 0 1.6.5 2 1l39.3 48.3v68c.4 6.5 5 18.9 19.1 18.9h30.3c1.5 0 2.7-1.2 2.7-2.7v-20c0-1.5-1.2-2.7-2.7-2.7h-2.2c-1.5 0-2.7 1.2-2.7 2.7v15.1h-25.4c-10 0-11.3-9.7-11.5-11.6v-67.7l40.8-48.2c.4-.5 1.4-.9 2-.9h21.9c1.5 0 2.7-1.2 2.7-2.7v-2.2c0-1.7-1.2-2.9-2.7-2.9"/></svg>